/vscmnt/brussel_pixiu_data/_data_brussel/112/vsc11236/PredSimResults/SUBJ06_Falisse2022/weighted/worker_02.mot
version=1
nRows=4
nColumns=124
inDegrees=yes
endheader
                time	         pelvis_tilt	         pelvis_list	     pelvis_rotation	           pelvis_tx	           pelvis_ty	           pelvis_tz	       hip_flexion_r	     hip_adduction_r	      hip_rotation_r	        knee_angle_r	       ankle_angle_r	    subtalar_angle_r	         mtp_angle_r	       hip_flexion_l	     hip_adduction_l	      hip_rotation_l	        knee_angle_l	       ankle_angle_l	    subtalar_angle_l	         mtp_angle_l	    lumbar_extension	      lumbar_bending	     lumbar_rotation	          arm_flex_r	           arm_add_r	           arm_rot_r	        elbow_flex_r	          arm_flex_l	           arm_add_l	           arm_rot_l	        elbow_flex_l	glut_med1_r/activation	glut_med2_r/activation	glut_med3_r/activation	glut_min1_r/activation	glut_min2_r/activation	glut_min3_r/activation	semimem_r/activation	semiten_r/activation	bifemlh_r/activation	bifemsh_r/activation	    sar_r/activation	add_long_r/activation	add_brev_r/activation	add_mag1_r/activation	add_mag2_r/activation	add_mag3_r/activation	    tfl_r/activation	   pect_r/activation	   grac_r/activation	glut_max1_r/activation	glut_max2_r/activation	glut_max3_r/activation	iliacus_r/activation	  psoas_r/activation	quad_fem_r/activation	    gem_r/activation	   peri_r/activation	rect_fem_r/activation	vas_med_r/activation	vas_int_r/activation	vas_lat_r/activation	med_gas_r/activation	lat_gas_r/activation	 soleus_r/activation	tib_post_r/activation	flex_dig_r/activation	flex_hal_r/activation	tib_ant_r/activation	per_brev_r/activation	per_long_r/activation	per_tert_r/activation	ext_dig_r/activation	ext_hal_r/activation	glut_med1_l/activation	glut_med2_l/activation	glut_med3_l/activation	glut_min1_l/activation	glut_min2_l/activation	glut_min3_l/activation	semimem_l/activation	semiten_l/activation	bifemlh_l/activation	bifemsh_l/activation	    sar_l/activation	add_long_l/activation	add_brev_l/activation	add_mag1_l/activation	add_mag2_l/activation	add_mag3_l/activation	    tfl_l/activation	   pect_l/activation	   grac_l/activation	glut_max1_l/activation	glut_max2_l/activation	glut_max3_l/activation	iliacus_l/activation	  psoas_l/activation	quad_fem_l/activation	    gem_l/activation	   peri_l/activation	rect_fem_l/activation	vas_med_l/activation	vas_int_l/activation	vas_lat_l/activation	med_gas_l/activation	lat_gas_l/activation	 soleus_l/activation	tib_post_l/activation	flex_dig_l/activation	flex_hal_l/activation	tib_ant_l/activation	per_brev_l/activation	per_long_l/activation	per_tert_l/activation	ext_dig_l/activation	ext_hal_l/activation	 ercspn_r/activation	 ercspn_l/activation	 intobl_r/activation	 intobl_l/activation	 extobl_r/activation	 extobl_l/activation	
          0.61850911	        -10.05808146	          3.28310928	         -2.81224246	          0.68654511	          0.92738821	          0.00597755	         -9.36600980	         -0.51109967	         11.19927765	         -4.38085020	          6.20225556	         -5.30259355	         30.21939642	         33.92665142	          4.33783281	          2.09685915	         -4.76665646	         10.62283251	         -8.53994448	          0.18044573	          2.45893860	         -2.04285936	          1.75204757	          2.25369758	        -13.46698008	         19.28481954	         66.54937524	         -6.77060683	        -13.44976104	         19.32642931	         21.78436944	          0.19137845	          0.16004832	          0.14546025	          0.15748432	          0.20973547	          0.19558923	          0.01000130	          0.01000110	          0.01000109	          0.05697492	          0.10299934	          0.01197965	          0.01000335	          0.01000623	          0.01000977	          0.01000183	          0.25313307	          0.01004051	          0.02117670	          0.03709982	          0.02677534	          0.01207009	          0.31453269	          0.44057106	          0.03711812	          0.03708325	          0.18428576	          0.10536454	          0.01000645	          0.01000621	          0.01000528	          0.36793608	          0.46338847	          0.36022567	          0.31901654	          0.33254260	          0.32802394	          0.01423489	          0.01000080	          0.01000079	          0.01000137	          0.01000047	          0.01000266	          0.04109544	          0.01206095	          0.01000101	          0.10178201	          0.01206767	          0.01201887	          0.18785134	          0.02324712	          0.01776595	          0.01000241	          0.01781890	          0.03712575	          0.13946551	          0.14415877	          0.11190933	          0.05787271	          0.01000556	          0.02043803	          0.07738048	          0.01000457	          0.01000083	          0.04789172	          0.02143151	          0.02065868	          0.26100412	          0.01000155	          0.01000047	          0.01756097	          0.13074574	          0.13411310	          0.11552143	          0.01000007	          0.01000016	          0.01000003	          0.01206178	          0.01000135	          0.01000119	          0.39137235	          0.18836669	          0.13695892	          0.26058989	          0.46883375	          0.08819398	          0.02081823	          0.05670195	          0.01000071	          0.03779847	          0.01000011	          0.05816651	
          0.63087929	        -10.04713237	          3.58907689	         -3.03459744	          0.70326153	          0.92593106	          0.00579663	         -9.38577629	         -0.76945006	         10.68156732	         -6.23589577	          6.06625847	         -4.80445258	         31.95325831	         33.04426969	          4.75531066	          2.43192150	         -4.64808682	          9.52093067	         -9.04714203	          0.18427803	          2.60979346	         -2.51176751	          1.80280301	          1.63371406	        -13.48231991	         19.24161025	         68.63318816	         -7.36153777	        -13.45618749	         19.26457008	         20.66668658	          0.15866712	          0.13269149	          0.12059689	          0.13078448	          0.17388604	          0.16215750	          0.01002867	          0.01001251	          0.01000539	          0.04723635	          0.08539436	          0.01004459	          0.01000560	          0.01000821	          0.01001970	          0.01000817	          0.20986580	          0.01006907	          0.01755941	          0.03075955	          0.02219939	          0.01000930	          0.26077939	          0.36832244	          0.03077370	          0.03074537	          0.15278603	          0.08735478	          0.01000340	          0.01000330	          0.01000277	          0.30504533	          0.40257974	          0.35381364	          0.30423561	          0.31323076	          0.31702892	          0.01180183	          0.01000200	          0.01000225	          0.01000170	          0.01000057	          0.01000260	          0.03407138	          0.01000073	          0.01000177	          0.08438490	          0.01000533	          0.01000109	          0.15574231	          0.01927390	          0.01472946	          0.01000044	          0.01477365	          0.03078055	          0.11562733	          0.11951904	          0.09278162	          0.04798103	          0.01000484	          0.01695333	          0.06415638	          0.01000392	          0.06019100	          0.03970629	          0.01776834	          0.01712772	          0.21639135	          0.02462954	          0.06319526	          0.01455986	          0.10839883	          0.11119053	          0.09577656	          0.01991621	          0.01978354	          0.01794506	          0.01000031	          0.01455177	          0.01457049	          0.32447543	          0.21110968	          0.14201573	          0.21604814	          0.44263416	          0.07311920	          0.03622751	          0.04700999	          0.01000319	          0.03133773	          0.01000096	          0.04822418	
          0.64324947	        -10.03154802	          3.88927398	         -3.23848124	          0.72020134	          0.92456230	          0.00559271	         -9.30535139	         -1.02274641	         10.13084795	         -8.28398054	          5.82027939	         -4.30508284	         33.61987821	         32.08065255	          5.13216578	          2.77587628	         -4.65108763	          8.55872491	         -9.55112442	          0.17391424	          2.77444420	         -2.98086986	          1.84506286	          0.95732173	        -13.49468344	         19.19142516	         70.62066476	         -7.97993099	        -13.47092408	         19.20260587	         19.67861615	          0.20784068	          0.11001075	          0.09998341	          0.19122361	          0.14416448	          0.13444027	          0.01000957	          0.01000241	          0.01000139	          0.03916238	          0.07079846	          0.02793606	          0.01000383	          0.01000362	          0.01000669	          0.01000214	          0.17399442	          0.03185772	          0.01456046	          0.02550305	          0.01840571	          0.01000269	          0.21620486	          0.30536572	          0.02551373	          0.02549079	          0.12667053	          0.07242347	          0.01000183	          0.01000180	          0.01000154	          0.25290420	          0.33376746	          0.33139763	          0.29572024	          0.31071047	          0.30877934	          0.01000033	          0.01000081	          0.01000054	          0.01000126	          0.01000044	          0.01000223	          0.13278640	          0.17604351	          0.22182420	          0.06997978	          0.13885710	          0.12814290	          0.12912153	          0.04737327	          0.02816955	          0.04620489	          0.01454337	          0.02551958	          0.09586341	          0.09909024	          0.07692306	          0.03978002	          0.01004268	          0.01406018	          0.05320993	          0.10418169	          0.05537094	          0.03291966	          0.01473133	          0.01420048	          0.17940614	          0.04148258	          0.15941922	          0.01207127	          0.08987056	          0.09218508	          0.07940577	          0.01651198	          0.01640202	          0.01487773	          0.01454700	          0.01206525	          0.01208047	          0.48384730	          0.27889976	          0.16696688	          0.35923316	          0.55150330	          0.22525901	          0.04442849	          0.05808957	          0.01000009	          0.03076078	          0.01000022	          0.03998128	
          0.65561965	        -10.01394824	          4.17263275	         -3.42463510	          0.73715796	          0.92341680	          0.00533544	         -9.08779198	         -1.26645357	          9.57688413	        -10.55412523	          5.43934745	         -3.79178051	         35.15116661	         31.07196498	          5.49655055	          3.10957038	         -4.57487408	          7.59040365	        -10.05976671	          0.16456214	          2.93710045	         -3.43369089	          1.88019333	          0.26743103	        -13.50704643	         19.14702673	         72.45769429	         -8.58211930	        -13.48145139	         19.15197923	         18.79630744	          0.18870909	          0.09120678	          0.08289336	          0.15854605	          0.11952300	          0.11146067	          0.01017231	          0.01000835	          0.01000459	          0.03246848	          0.05869729	          0.02523764	          0.04279237	          0.01003413	          0.01009094	          0.04510832	          0.14425417	          0.02642711	          0.01207421	          0.02114510	          0.01526071	          0.01000787	          0.17924927	          0.25316999	          0.02115282	          0.02113430	          0.10501892	          0.06004428	          0.01306005	          0.01334008	          0.01422382	          0.20967549	          0.27671699	          0.30026463	          0.27651744	          0.28671664	          0.28431380	          0.01000033	          0.01010347	          0.01206669	          0.01000199	          0.01000055	          0.01000198	          0.21188944	          0.27229947	          0.33793044	          0.05802325	          0.11513497	          0.19616493	          0.10705107	          0.05994555	          0.04378414	          0.03830733	          0.01205849	          0.02115792	          0.07947781	          0.08215457	          0.06377754	          0.04727691	          0.01000263	          0.01166585	          0.04715959	          0.16828870	          0.10412140	          0.04863662	          0.01221341	          0.01177345	          0.15185842	          0.03439936	          0.19745491	          0.01000816	          0.07451004	          0.07642894	          0.06583384	          0.01368964	          0.01359851	          0.01233471	          0.01206065	          0.01000409	          0.01001613	          0.55095645	          0.27224617	          0.15068561	          0.49384566	          0.58459212	          0.26622752	          0.06905955	          0.07089468	          0.01000014	          0.02550297	          0.01000019	          0.03314733	
